# xmcd CD database file
#
# Track frame offsets:
#	150
#	20700
#	43425
#	64200
#	88125
#	119925
#	150000
#	168525
#	192675
#	212700
#
# Disc length: 3164 seconds
#
# Revision: 1
# Processed by: cddbd v1.5.1PL0 Copyright (c) Steve Scherf et al.
# Submitted via: freeDBTagger 0.5
#
DISCID=990c5a0a
DTITLE=上妻宏光 - Beyond
DYEAR=1900
DGENRE=rock
TTITLE0=暁の光
TTITLE1=悲しみの果て
TTITLE2=Shami's Groove
TTITLE3=紙の舞(Beyond Version)
TTITLE4=ペンノレ〜津軽よされ節
TTITLE5=tears...
TTITLE6=panther
TTITLE7=鼓動
TTITLE8=In the sky
TTITLE9=君への想い
EXTD=
EXTT0=
EXTT1=
EXTT2=
EXTT3=
EXTT4=
EXTT5=
EXTT6=
EXTT7=
EXTT8=
EXTT9=
PLAYORDER=
